<svg xmlns="http://www.w3.org/2000/svg" width="176" height="58" viewBox="0 0 176 58"><style>.a{fill:#1D1D1B;}</style><title>  logo-patterson</title><desc>  Created with Sketch.</desc><defs><polygon points="0 56.9 175.1 56.9 175.1 1 0 1"/></defs><g fill="none"><g transform="translate(0 0.119283)"><path d="M7.1 29.2L7.1 20.8C7.9 22.1 9.8 23.1 12.2 23.1 17 23.1 20 19.4 20 14.4 20 9.5 17.2 5.7 12.3 5.7 9.7 5.7 7.8 6.9 7 8.3L7 6.1 3.1 6.1 3.1 29.2 7.1 29.2ZM16 14.4C16 17.6 14.2 19.6 11.5 19.6 8.9 19.6 7 17.6 7 14.4 7 11.3 8.9 9.2 11.5 9.2 14.2 9.2 16 11.3 16 14.4L16 14.4ZM22.2 18.2C22.2 20.8 24.3 23.2 27.8 23.2 30.5 23.2 32.2 21.9 33 20.6 33 21.9 33.1 22.6 33.2 22.7L36.9 22.7C36.8 22.5 36.7 21.6 36.7 20.1L36.7 11.8C36.7 8.5 34.7 5.6 29.5 5.6 25.4 5.6 22.8 8.1 22.5 11L26.1 11.8C26.3 10.1 27.5 8.8 29.6 8.8 31.8 8.8 32.7 9.9 32.7 11.3 32.7 11.9 32.5 12.4 31.5 12.5L27.2 13.2C24.4 13.6 22.2 15.2 22.2 18.2L22.2 18.2ZM28.6 20.1C27 20.1 26.1 19.1 26.1 18 26.1 16.6 27.1 15.9 28.4 15.7L32.7 15.1 32.7 15.8C32.7 19.1 30.8 20.1 28.6 20.1L28.6 20.1ZM45.8 1L42.2 1 42.2 3.5C42.2 4.9 41.4 6.1 39.6 6.1L38.7 6.1 38.7 9.6 41.8 9.6 41.8 18C41.8 21.1 43.7 22.9 46.8 22.9 48.3 22.9 49 22.7 49.3 22.5L49.3 19.3C49.1 19.3 48.5 19.4 47.9 19.4 46.4 19.4 45.8 18.8 45.8 17.3L45.8 9.6 49.2 9.6 49.2 6.1 45.8 6.1 45.8 1ZM57.6 1L54 1 54 3.5C54 4.9 53.2 6.1 51.4 6.1L50.6 6.1 50.6 9.6 53.7 9.6 53.7 18C53.7 21.1 55.6 22.9 58.7 22.9 60.1 22.9 60.9 22.7 61.1 22.5L61.1 19.3C61 19.3 60.3 19.4 59.8 19.4 58.3 19.4 57.6 18.8 57.6 17.3L57.6 9.6 61.1 9.6 61.1 6.1 57.6 6.1 57.6 1ZM67.1 12.6C67.2 10.8 68.7 8.9 71.2 8.9 73.9 8.9 75.3 10.6 75.3 12.6L67.1 12.6ZM75.8 16.9C75.2 18.5 74 19.8 71.6 19.8 69.1 19.8 67.1 18 67 15.5L79.2 15.5C79.3 15.4 79.3 14.9 79.3 14.2 79.3 8.9 76.3 5.6 71.2 5.6 66.9 5.6 63 9 63 14.3 63 20 67 23.2 71.6 23.2 75.6 23.2 78.2 20.9 79.1 18L75.8 16.9ZM92.3 6C92.1 5.9 91.7 5.9 91.2 5.9 89 5.9 87.1 6.9 86.4 8.7L86.4 6.1 82.5 6.1 82.5 22.7 86.5 22.7 86.5 14.8C86.5 11.7 87.9 9.9 91 9.9 91.4 9.9 91.8 9.9 92.3 10L92.3 6ZM93.5 18.2C93.7 20.1 95.5 23.2 100.4 23.2 104.6 23.2 106.7 20.4 106.7 17.9 106.7 15.4 105 13.5 101.9 12.8L99.3 12.3C98.3 12.1 97.7 11.5 97.7 10.6 97.7 9.6 98.7 8.7 100.1 8.7 102.3 8.7 103 10.2 103.2 11.2L106.5 10.2C106.3 8.6 104.7 5.6 100.1 5.6 96.6 5.6 93.9 8 93.9 10.9 93.9 13.2 95.5 15.1 98.4 15.8L100.9 16.3C102.2 16.6 102.9 17.3 102.9 18.2 102.9 19.2 102 20.1 100.3 20.1 98.2 20.1 97.1 18.8 96.9 17.2L93.5 18.2ZM117.2 19.7C114.8 19.7 112.5 17.8 112.5 14.4 112.5 10.9 114.8 9.1 117.2 9.1 119.7 9.1 121.9 10.9 121.9 14.4 121.9 17.9 119.7 19.7 117.2 19.7L117.2 19.7ZM117.2 5.6C112.2 5.6 108.6 9.3 108.6 14.4 108.6 19.5 112.2 23.2 117.2 23.2 122.2 23.2 125.9 19.5 125.9 14.4 125.9 9.3 122.2 5.6 117.2 5.6L117.2 5.6ZM133.1 13.1C133.1 10.9 134.3 9.2 136.5 9.2 139 9.2 140 10.8 140 12.9L140 22.7 144 22.7 144 12.2C144 8.5 142 5.6 137.9 5.6 136 5.6 134.1 6.4 133 8.3L133 6.1 129.1 6.1 129.1 22.7 133.1 22.7 133.1 13.1Z" class="a"/><mask fill="white"></mask><path d="M77.1 56.4L81.1 56.4 81.1 31.6 77.1 31.6 77.1 56.4ZM74.2 49.1C74.3 49.1 74.3 48.5 74.3 47.9 74.3 42.6 71.3 39.2 66.2 39.2 61.9 39.2 58 42.7 58 48 58 53.6 62 56.9 66.6 56.9 70.6 56.9 73.2 54.5 74.1 51.6L70.8 50.6C70.2 52.2 69 53.5 66.6 53.5 64.1 53.5 62.1 51.7 62 49.1L74.2 49.1ZM70.3 46.2L62.1 46.2C62.2 44.5 63.7 42.5 66.2 42.5 68.9 42.5 70.2 44.3 70.3 46.2L70.3 46.2ZM51.4 56.4L57.9 39.7 53.7 39.7 49.4 51.6 45 39.7 40.6 39.7 47.4 56.4 51.4 56.4ZM35.7 56.4L39.4 56.4C39.4 56.2 39.2 55.2 39.2 53.7L39.2 45.5C39.2 42.1 37.3 39.2 32.1 39.2 28 39.2 25.4 41.8 25.1 44.7L28.7 45.5C28.9 43.8 30 42.5 32.1 42.5 34.3 42.5 35.3 43.6 35.3 45 35.3 45.6 35 46.1 34.1 46.2L29.8 46.9C26.9 47.3 24.7 48.9 24.7 51.9 24.7 54.5 26.9 56.9 30.4 56.9 33.1 56.9 34.7 55.5 35.5 54.3 35.5 55.6 35.7 56.3 35.7 56.4L35.7 56.4ZM35.3 49.5C35.3 52.7 33.4 53.8 31.1 53.8 29.6 53.8 28.7 52.8 28.7 51.6 28.7 50.3 29.7 49.6 30.9 49.4L35.3 48.7 35.3 49.5ZM22.1 43.6C22.5 43.6 23 43.6 23.4 43.7L23.4 39.6C23.2 39.6 22.8 39.5 22.3 39.5 20.1 39.5 18.3 40.6 17.5 42.4L17.5 39.7 13.6 39.7 13.6 56.4 17.6 56.4 17.6 48.5C17.6 45.3 19 43.6 22.1 43.6L22.1 43.6ZM8.1 56.6C9.6 56.6 10.3 56.3 10.6 56.2L10.6 52.9C10.4 53 9.7 53.1 9.2 53.1 7.7 53.1 7 52.5 7 51L7 43.3 10.5 43.3 10.5 39.7 7 39.7 7 34.6 3.4 34.6 3.4 37.1C3.4 38.6 2.6 39.7 0.9 39.7L0 39.7 0 43.3 3.1 43.3 3.1 51.6C3.1 54.8 5 56.6 8.1 56.6L8.1 56.6Z" mask="url(#mask-2)" class="a"/></g><polygon points="147.6 23.2 175.1 23.2 175.1 19.7 147.6 19.7" fill="#011EFF"/></g></svg>
