<?xml version="1.0" encoding="iso-8859-1"?>
<!-- Generator: Adobe Illustrator 19.0.0, SVG Export Plug-In . SVG Version: 6.00 Build 0)  -->
<svg version="1.1" id="Layer_1" xmlns="http://www.w3.org/2000/svg" xmlns:xlink="http://www.w3.org/1999/xlink" x="0px" y="0px"
	 viewBox="0 0 512 512" style="enable-background:new 0 0 512 512;" xml:space="preserve">
<g>
	<g>
		<path d="M43.636,40.727v273.455h285.091V40.727H43.636z M311.273,296.727H61.091v-33.588l102.251-80.725l147.931,98.621V296.727z
			 M311.272,260.056l-81.673-54.448l32.818-28.716l48.855,34.198V260.056z M311.273,189.783l-50.054-35.037l-46.665,40.832
			l-52.077-34.718l-101.385,80.04V58.182h250.182V189.783z"/>
	</g>
</g>
<g>
	<g>
		<path d="M369.455,157.091V0H2.909v354.909h139.636V512h366.545V157.091H369.455z M369.455,215.273h81.455v238.545H200.727v-98.909
			h168.727V215.273z M20.364,337.455v-320H352v320H20.364z M491.636,494.545H160V354.909h23.273v116.364h285.091V197.818h-98.909
			v-23.273h122.182V494.545z"/>
	</g>
</g>
<g>
	<g>
		<path d="M122.182,75.636c-20.852,0-37.818,16.965-37.818,37.818c0,20.854,16.966,37.818,37.818,37.818S160,134.308,160,113.455
			C160,92.601,143.034,75.636,122.182,75.636z M122.182,133.818c-11.228,0-20.364-9.136-20.364-20.364
			c0-11.228,9.136-20.364,20.364-20.364s20.364,9.136,20.364,20.364C142.545,124.682,133.41,133.818,122.182,133.818z"/>
	</g>
</g>
<g>
	<g>
		<rect x="197.818" y="87.273" width="81.455" height="17.455"/>
	</g>
</g>
<g>
	<g>
		<rect x="180.364" y="122.182" width="23.273" height="17.455"/>
	</g>
</g>
<g>
	<g>
		<rect x="215.273" y="122.182" width="23.273" height="17.455"/>
	</g>
</g>
<g>
</g>
<g>
</g>
<g>
</g>
<g>
</g>
<g>
</g>
<g>
</g>
<g>
</g>
<g>
</g>
<g>
</g>
<g>
</g>
<g>
</g>
<g>
</g>
<g>
</g>
<g>
</g>
<g>
</g>
</svg>
