<?xml version="1.0" encoding="iso-8859-1"?>
<!-- Generator: Adobe Illustrator 16.0.0, SVG Export Plug-In . SVG Version: 6.00 Build 0)  -->
<!DOCTYPE svg PUBLIC "-//W3C//DTD SVG 1.1//EN" "http://www.w3.org/Graphics/SVG/1.1/DTD/svg11.dtd">
<svg version="1.1" id="Capa_1" xmlns="http://www.w3.org/2000/svg" xmlns:xlink="http://www.w3.org/1999/xlink" x="0px" y="0px"
	 width="612px" height="612px" viewBox="0 0 612 612" style="enable-background:new 0 0 612 612;" xml:space="preserve">
<g>
	<g id="Pencil">
		<g>
			<path d="M605.325,165.45L446.53,6.655C442.056,2.18,436.184,0,430.312,0s-11.743,2.18-16.218,6.675L0,420.75V612h191.25
				l414.075-414.075c4.494-4.495,6.675-10.366,6.675-16.237C612,175.797,609.819,169.945,605.325,165.45z M57.375,554.625v-93.311
				l93.311,93.311H57.375z M201.979,524.79L87.229,410.04l265.436-265.455l114.75,114.75L201.979,524.79z M507.979,218.79
				l-114.75-114.75l37.083-37.103l114.75,114.75L507.979,218.79z"/>
		</g>
	</g>
</g>
<g>
</g>
<g>
</g>
<g>
</g>
<g>
</g>
<g>
</g>
<g>
</g>
<g>
</g>
<g>
</g>
<g>
</g>
<g>
</g>
<g>
</g>
<g>
</g>
<g>
</g>
<g>
</g>
<g>
</g>
</svg>
