<?xml version="1.0" encoding="iso-8859-1"?>
<!-- Generator: Adobe Illustrator 19.0.0, SVG Export Plug-In . SVG Version: 6.00 Build 0)  -->
<svg version="1.1" id="Layer_1" xmlns="http://www.w3.org/2000/svg" xmlns:xlink="http://www.w3.org/1999/xlink" x="0px" y="0px"
	 viewBox="0 0 512 512" style="enable-background:new 0 0 512 512;" xml:space="preserve">
<g>
	<g>
		<path d="M444.144,291.482l-99.337-88.354c-5.419-4.819-13.715-4.332-18.533,1.084c-4.819,5.418-4.334,13.716,1.084,18.534
			l88.307,78.546l-88.308,78.545c-5.418,4.818-5.904,13.116-1.084,18.534c2.594,2.917,6.195,4.403,9.815,4.403
			c3.102,0,6.219-1.094,8.72-3.319l99.337-88.354c2.802-2.492,4.403-6.061,4.403-9.809
			C448.547,297.544,446.945,293.973,444.144,291.482z"/>
	</g>
</g>
<g>
	<g>
		<path d="M184.644,379.836l-88.31-78.543l88.308-78.545c5.417-4.819,5.904-13.118,1.084-18.536
			c-4.819-5.418-13.116-5.904-18.534-1.084l-99.337,88.354c-2.8,2.492-4.403,6.061-4.403,9.809s1.603,7.318,4.403,9.809
			l99.337,88.354c2.501,2.225,5.616,3.319,8.721,3.319c3.618,0,7.221-1.487,9.815-4.403
			C190.547,392.952,190.061,384.654,184.644,379.836z"/>
	</g>
</g>
<g>
	<g>
		<path d="M287.374,196.612c-6.93-2.097-14.268,1.82-16.37,8.759l-55.138,182.045c-2.102,6.94,1.82,14.269,8.759,16.371
			c1.27,0.383,2.549,0.567,3.811,0.567c5.633,0,10.841-3.656,12.56-9.326l55.138-182.045
			C298.236,206.043,294.315,198.714,287.374,196.612z"/>
	</g>
</g>
<g>
	<g>
		<path d="M498.872,0H13.128C5.878,0,0,5.878,0,13.128v485.744C0,506.123,5.878,512,13.128,512h485.744
			c7.249,0,13.128-5.877,13.128-13.128V13.128C512,5.878,506.121,0,498.872,0z M105.026,26.256h301.949v52.513H105.026V26.256z
			 M26.256,26.256h52.513v52.513H26.256V26.256z M485.744,485.744H26.256V105.026h459.487V485.744z M485.744,78.769h-52.513V26.256
			h52.513V78.769z"/>
	</g>
</g>
<g>
</g>
<g>
</g>
<g>
</g>
<g>
</g>
<g>
</g>
<g>
</g>
<g>
</g>
<g>
</g>
<g>
</g>
<g>
</g>
<g>
</g>
<g>
</g>
<g>
</g>
<g>
</g>
<g>
</g>
</svg>
