<?xml version="1.0" encoding="iso-8859-1"?>
<!-- Generator: Adobe Illustrator 19.1.0, SVG Export Plug-In . SVG Version: 6.00 Build 0)  -->
<svg version="1.1" id="Capa_1" xmlns="http://www.w3.org/2000/svg" xmlns:xlink="http://www.w3.org/1999/xlink" x="0px" y="0px"
	 viewBox="0 0 317.452 317.452" style="enable-background:new 0 0 317.452 317.452;" xml:space="preserve">
<g>
	<g id="Safari_2_">
		<g>
			<path d="M158.726,0C71.064,0,0,71.064,0,158.726s71.064,158.726,158.726,158.726s158.726-71.064,158.726-158.726
				S246.388,0,158.726,0z M158.726,294.777c-75.145,0-136.051-60.905-136.051-136.051S83.581,22.675,158.726,22.675
				s136.051,60.905,136.051,136.051S233.871,294.777,158.726,294.777z M128.591,137.978c-0.726,0.998-1.519,1.905-2.154,2.993
				c-4.512,7.8-5.487,16.644-3.56,24.784l-23.673,90.383l61.246-64.624c10.068-1.383,19.41-7.097,24.897-16.553
				c1.315-2.29,2.268-4.671,3.016-7.097l4.376,2.2l25.51-120.11l-93.535,86.098L128.591,137.978z M146.073,152.286
				c0.93-1.61,2.245-2.789,3.696-3.719l17.233,8.617c0.159,2.199-0.113,4.422-1.292,6.462c-3.129,5.419-10.068,7.279-15.487,4.15
				C144.803,164.644,142.944,157.728,146.073,152.286z"/>
		</g>
	</g>
</g>
<g>
</g>
<g>
</g>
<g>
</g>
<g>
</g>
<g>
</g>
<g>
</g>
<g>
</g>
<g>
</g>
<g>
</g>
<g>
</g>
<g>
</g>
<g>
</g>
<g>
</g>
<g>
</g>
<g>
</g>
</svg>
