<?xml version="1.0" encoding="iso-8859-1"?>
<!-- Generator: Adobe Illustrator 19.0.0, SVG Export Plug-In . SVG Version: 6.00 Build 0)  -->
<svg version="1.1" id="Capa_1" xmlns="http://www.w3.org/2000/svg" xmlns:xlink="http://www.w3.org/1999/xlink" x="0px" y="0px"
	 viewBox="0 0 285.754 285.754" style="enable-background:new 0 0 285.754 285.754;" xml:space="preserve">
<path d="M267.411,74.385c-0.002-0.244-0.016-0.488-0.048-0.732c-0.002-0.017-0.006-0.033-0.009-0.05
	c-0.031-0.218-0.076-0.436-0.131-0.652c-0.015-0.06-0.032-0.118-0.049-0.177c-0.051-0.176-0.11-0.35-0.178-0.522
	c-0.023-0.058-0.043-0.116-0.068-0.174c-0.093-0.217-0.196-0.431-0.317-0.641c-0.121-0.209-0.255-0.406-0.397-0.594
	c-0.038-0.05-0.078-0.098-0.118-0.147c-0.115-0.144-0.234-0.281-0.36-0.412c-0.044-0.046-0.088-0.091-0.133-0.136
	c-0.156-0.152-0.318-0.296-0.487-0.429c-0.017-0.014-0.033-0.029-0.051-0.043c-0.193-0.148-0.394-0.281-0.602-0.403
	c-0.017-0.01-0.032-0.023-0.049-0.033L145.877,0.804c-0.016-0.009-0.033-0.015-0.049-0.024c-0.212-0.12-0.43-0.229-0.656-0.323
	c-0.016-0.006-0.032-0.011-0.047-0.017c-0.205-0.083-0.416-0.152-0.631-0.213c-0.058-0.016-0.117-0.031-0.176-0.045
	c-0.179-0.044-0.362-0.08-0.547-0.108c-0.059-0.009-0.118-0.02-0.178-0.027C143.358,0.019,143.12,0,142.877,0
	s-0.481,0.019-0.716,0.047c-0.06,0.007-0.119,0.018-0.178,0.027c-0.185,0.028-0.368,0.063-0.547,0.108
	c-0.059,0.015-0.117,0.029-0.176,0.045c-0.215,0.06-0.426,0.13-0.631,0.213c-0.016,0.006-0.032,0.011-0.047,0.017
	c-0.227,0.094-0.445,0.203-0.656,0.323c-0.016,0.009-0.033,0.015-0.049,0.024L21.339,69.242c-0.018,0.01-0.034,0.024-0.052,0.034
	c-0.209,0.123-0.412,0.257-0.606,0.406c-0.009,0.006-0.016,0.014-0.024,0.021c-0.179,0.139-0.348,0.291-0.512,0.451
	c-0.044,0.043-0.087,0.088-0.13,0.133c-0.125,0.131-0.245,0.268-0.36,0.412c-0.04,0.05-0.081,0.099-0.119,0.15
	c-0.134,0.18-0.261,0.367-0.377,0.566c-0.006,0.01-0.013,0.019-0.019,0.029c-0.002,0.003-0.004,0.006-0.006,0.009
	c-0.119,0.208-0.221,0.421-0.313,0.636c-0.022,0.052-0.041,0.106-0.061,0.158c-0.07,0.177-0.131,0.356-0.183,0.536
	c-0.016,0.057-0.032,0.113-0.047,0.171c-0.055,0.214-0.099,0.428-0.129,0.644c-0.003,0.02-0.008,0.04-0.01,0.061
	c-0.032,0.245-0.047,0.491-0.049,0.736c0,0.015-0.003,0.03-0.003,0.045v136.876c0,0.018,0.003,0.035,0.004,0.053
	c0.002,0.244,0.016,0.488,0.048,0.732c0.002,0.017,0.006,0.033,0.009,0.05c0.031,0.218,0.076,0.436,0.131,0.652
	c0.015,0.06,0.032,0.118,0.049,0.177c0.051,0.176,0.11,0.35,0.178,0.522c0.023,0.058,0.043,0.116,0.068,0.174
	c0.093,0.217,0.196,0.431,0.317,0.641c0.004,0.007,0.009,0.013,0.013,0.02c0.129,0.222,0.272,0.436,0.429,0.64
	c0.089,0.117,0.19,0.22,0.287,0.329c0.077,0.087,0.149,0.178,0.231,0.26c0.124,0.124,0.259,0.234,0.392,0.345
	c0.068,0.056,0.13,0.118,0.2,0.172c0.151,0.116,0.312,0.216,0.473,0.316c0.058,0.036,0.111,0.08,0.171,0.114l0.034,0.02
	c0.006,0.003,0.012,0.007,0.018,0.01l83.487,48.202c2.873,1.658,6.54,0.673,8.196-2.196s0.674-6.539-2.196-8.196l-74.539-43.035
	l24.083-13.904l76.455,44.141v38.201c0,0.022,0.003,0.043,0.003,0.064c0.001,0.129,0.01,0.258,0.02,0.387
	c0.005,0.071,0.008,0.143,0.016,0.213c0.013,0.118,0.033,0.235,0.054,0.353c0.014,0.081,0.025,0.163,0.042,0.244
	c0.021,0.097,0.049,0.194,0.075,0.291c0.026,0.097,0.05,0.195,0.081,0.29c0.025,0.078,0.056,0.155,0.085,0.232
	c0.041,0.111,0.082,0.223,0.129,0.331c0.029,0.066,0.063,0.13,0.094,0.196c0.056,0.115,0.112,0.229,0.174,0.34
	c0.011,0.019,0.019,0.04,0.03,0.059c0.018,0.031,0.041,0.058,0.06,0.089c0.101,0.168,0.21,0.33,0.327,0.487
	c0.041,0.055,0.08,0.11,0.122,0.163c0.143,0.179,0.294,0.352,0.456,0.514c0.045,0.044,0.093,0.083,0.139,0.126
	c0.126,0.118,0.257,0.231,0.393,0.338c0.066,0.052,0.133,0.102,0.201,0.151c0.14,0.101,0.284,0.194,0.432,0.283
	c0.051,0.03,0.099,0.063,0.151,0.092c0.205,0.114,0.417,0.217,0.636,0.307c0.031,0.013,0.062,0.022,0.093,0.034
	c0.189,0.074,0.383,0.138,0.58,0.193c0.059,0.016,0.119,0.031,0.178,0.046c0.174,0.043,0.351,0.077,0.531,0.104
	c0.064,0.01,0.127,0.021,0.191,0.029c0.218,0.026,0.438,0.041,0.662,0.043c0.016,0,0.032,0.003,0.048,0.003
	c0.031,0,0.063-0.005,0.094-0.006c0.2-0.003,0.398-0.016,0.593-0.038c0.079-0.009,0.158-0.024,0.237-0.036
	c0.161-0.025,0.32-0.055,0.476-0.093c0.074-0.018,0.148-0.036,0.222-0.057c0.195-0.055,0.387-0.119,0.573-0.193
	c0.031-0.012,0.063-0.021,0.094-0.034c0.227-0.094,0.445-0.203,0.656-0.323c0.016-0.009,0.033-0.015,0.049-0.024l118.538-68.438
	c1.856-1.072,3-3.053,3-5.196V74.438C267.415,74.421,267.412,74.403,267.411,74.385z M66.422,180.089v-74.578l24.114,13.841v46.814
	L66.422,180.089z M30.339,84.801l24.083,13.823v88.394l-24.083,13.904V84.801z M136.877,132.116l-28.104-16.131l28.104-16.225
	V132.116z M148.877,99.759l28.341,16.363l-28.341,16.362V99.759z M189.218,109.193l-40.341-23.291V58.058l64.455,37.213
	L189.218,109.193z M136.877,44.201l-45,25.981c-2.87,1.657-3.853,5.327-2.196,8.196c1.657,2.869,5.327,3.854,8.196,2.196l39-22.517
	v27.845l-40.139,23.174L36.365,74.423l100.512-58.031V44.201z M102.536,126.241l28.661,16.451l-28.661,16.547V126.241z
	 M136.877,153.269v32.725l-28.341-16.362L136.877,153.269z M148.877,152.84l28.796,16.529l-28.796,16.625V152.84z M148.877,199.85
	l40.831-23.574l24.185,13.882l-65.016,37.537V199.85z M195.218,165.602v-24.725c0-3.313-2.687-6-6-6s-6,2.687-6,6v17.838
	l-27.968-16.053l64.082-36.998v73.78L195.218,165.602z M225.332,88.343l-76.455-44.141V16.392l100.538,58.046L225.332,88.343z
	 M72.422,190.482l24.114-13.922l40.341,23.291v27.845L72.422,190.482z M148.877,269.36v-27.809l77.051-44.485l13.962,8.014
	c0.942,0.541,1.969,0.797,2.981,0.797c2.079,0,4.101-1.082,5.21-3.014c1.649-2.874,0.656-6.541-2.217-8.19l-14.532-8.341V98.735
	l24.083-13.904v123.02L148.877,269.36z"/>
<g>
</g>
<g>
</g>
<g>
</g>
<g>
</g>
<g>
</g>
<g>
</g>
<g>
</g>
<g>
</g>
<g>
</g>
<g>
</g>
<g>
</g>
<g>
</g>
<g>
</g>
<g>
</g>
<g>
</g>
</svg>
