<svg viewBox="0 0 512 512" xmlns="http://www.w3.org/2000/svg"><path d="m256 0c-140.609375 0-256 115.390625-256 256 0 46.40625 12.511719 91.582031 36.238281 131.105469l-36.238281 124.894531 124.894531-36.238281c39.523438 23.726562 84.699219 36.238281 131.105469 36.238281 140.609375 0 256-115.390625 256-256s-115.390625-256-256-256zm160.054688 364.167969-11.910157 11.910156c-16.851562 16.851563-55.605469 15.515625-80.507812 10.707031-82.800781-15.992187-179.335938-109.5625-197.953125-190.59375-9.21875-40.140625-4.128906-75.039062 9.183594-88.355468l11.910156-11.910157c6.574218-6.570312 17.253906-6.5625 23.820312 0l47.648438 47.652344c3.179687 3.179687 4.921875 7.394531 4.921875 11.90625s-1.742188 8.730469-4.921875 11.898437l-11.90625 11.921876c-13.125 13.15625-13.125 34.527343 0 47.652343l78.683594 77.648438c13.164062 13.164062 34.46875 13.179687 47.652343 0l11.910157-11.90625c6.148437-6.183594 17.632812-6.203125 23.832031 0l47.636719 47.636719c6.46875 6.441406 6.714843 17.113281 0 23.832031zm0 0"/></svg>