<svg height="512px" style="enable-background:new 0 0 512 512;" version="1.1" viewBox="0 0 512 512" width="512px" xml:space="preserve" xmlns="http://www.w3.org/2000/svg" xmlns:xlink="http://www.w3.org/1999/xlink"><g id="C_-_52_x2C__speech_x2C__Business_x2C__conference_x2C__event_x2C__presentation_x2C__room_x2C__speaker"><g><path d="M301.276,157.5h-90.201c-17.211,0-31.213,13.928-31.213,31.048v40.028h152.275v-40.379    C332.137,171.271,318.293,157.5,301.276,157.5z M264.967,215.361h-17.934v-17.85h17.934V215.361z M264.967,188.57h-17.934v-17.85    h17.934V188.57z"/><path d="M256.177,121.319c22.078,0,40.04-17.868,40.04-39.831c0-0.687-0.018-1.373-0.052-2.054    c-0.243-4.736-1.322-9.256-3.091-13.417c-0.005-0.009-0.009-0.019-0.012-0.027c-6.089-14.287-20.33-24.334-36.886-24.334    c-16.552,0-30.791,10.042-36.882,24.324c-0.009,0.021-0.019,0.043-0.026,0.064c-0.241,0.566-0.469,1.14-0.683,1.719    c-0.023,0.062-0.043,0.123-0.065,0.184c-0.202,0.553-0.394,1.11-0.571,1.673c-0.02,0.067-0.039,0.133-0.059,0.199    c-0.174,0.564-0.338,1.131-0.488,1.705c-0.014,0.053-0.024,0.107-0.039,0.16c-0.15,0.587-0.29,1.18-0.414,1.778    c-0.007,0.034-0.012,0.068-0.019,0.102c-0.125,0.615-0.238,1.236-0.335,1.861c-0.005,0.037-0.008,0.074-0.014,0.11    c-0.094,0.622-0.177,1.248-0.241,1.877c-0.013,0.128-0.019,0.257-0.03,0.385c-0.05,0.542-0.097,1.085-0.125,1.635    c-0.035,0.683-0.053,1.368-0.053,2.056C216.134,103.451,234.097,121.319,256.177,121.319z"/><rect height="115.724" width="62.458" x="223.726" y="310.419"/><path d="M169.438,273.702h-21.207c-2.587,0-4.686-2.098-4.686-4.686v-35.755c0-2.588,2.098-4.686,4.686-4.686h22.259v-40.028    c0-22.287,18.207-40.419,40.584-40.419h90.201c22.184,0,40.231,17.974,40.231,40.067v40.379h22.26    c2.588,0,4.686,2.098,4.686,4.686v35.755c0,2.588-2.098,4.686-4.686,4.686h-23.313v44.257h99.453V68.122H303.747    c0.542,1.914,0.958,3.858,1.261,5.828c0.006,0.035,0.012,0.069,0.016,0.104c0.234,1.539,0.395,3.093,0.481,4.661    c0.009,0.164,0.018,0.328,0.026,0.492c0.033,0.759,0.057,1.518,0.057,2.282c0,27.13-22.165,49.202-49.411,49.202    c-27.247,0-49.414-22.072-49.414-49.202c0-0.76,0.024-1.516,0.058-2.271c0.008-0.172,0.017-0.344,0.026-0.515    c0.086-1.539,0.244-3.066,0.471-4.58c0.013-0.084,0.027-0.167,0.04-0.252c0.303-1.94,0.716-3.858,1.25-5.747H72.092v249.837    h97.346V273.702z"/><polygon points="152.917,237.947 152.917,264.331 174.124,264.331 335.771,264.331 359.082,264.331 359.082,237.947     336.822,237.947 175.176,237.947   "/><path d="M471.531,460.975H331.085v-138.33v-48.942H178.81v48.942v138.33H40.469c-2.587,0-4.686,2.097-4.686,4.686    c0,2.588,2.099,4.685,4.686,4.685h431.063c2.588,0,4.686-2.097,4.686-4.685C476.217,463.071,474.119,460.975,471.531,460.975z     M214.355,305.733c0-2.588,2.099-4.685,4.686-4.685h71.829c2.588,0,4.686,2.097,4.686,4.685v125.095    c0,2.588-2.098,4.686-4.686,4.686h-71.829c-2.587,0-4.686-2.098-4.686-4.686V305.733z"/></g></g><g id="speaker"/></svg>
